<mxfile host="Electron" modified="2023-07-29T10:36:35.567Z" agent="Mozilla/5.0 (Windows NT 10.0; Win64; x64) AppleWebKit/537.36 (KHTML, like Gecko) draw.io/21.5.0 Chrome/112.0.5615.204 Electron/24.5.1 Safari/537.36" etag="xEMbxep9eAgoT4qIWN25" version="21.5.0" type="device">
  <diagram name="Page-1" id="L9mNT1PZGyFaBk7vkTUO">
    <mxGraphModel dx="2564" dy="517" grid="1" gridSize="10" guides="1" tooltips="1" connect="1" arrows="1" fold="1" page="1" pageScale="1" pageWidth="850" pageHeight="1100" math="0" shadow="0">
      <root>
        <mxCell id="0" />
        <mxCell id="1" parent="0" />
        <mxCell id="sT2azdXUO7zj-hy4hxT2-1" value="Doctor" style="rounded=1;arcSize=10;whiteSpace=wrap;html=1;align=center;" vertex="1" parent="1">
          <mxGeometry x="40" y="160" width="120" height="40" as="geometry" />
        </mxCell>
        <mxCell id="sT2azdXUO7zj-hy4hxT2-2" value="DoctorID" style="ellipse;whiteSpace=wrap;html=1;align=center;fontStyle=4;" vertex="1" parent="1">
          <mxGeometry x="-110" y="92" width="130" height="40" as="geometry" />
        </mxCell>
        <mxCell id="sT2azdXUO7zj-hy4hxT2-5" value="" style="endArrow=none;html=1;rounded=0;exitX=0.75;exitY=1.025;exitDx=0;exitDy=0;exitPerimeter=0;" edge="1" parent="1" source="sT2azdXUO7zj-hy4hxT2-2">
          <mxGeometry relative="1" as="geometry">
            <mxPoint x="10" y="140" as="sourcePoint" />
            <mxPoint x="40" y="160" as="targetPoint" />
          </mxGeometry>
        </mxCell>
        <mxCell id="sT2azdXUO7zj-hy4hxT2-6" style="edgeStyle=orthogonalEdgeStyle;rounded=0;orthogonalLoop=1;jettySize=auto;html=1;exitX=0.5;exitY=1;exitDx=0;exitDy=0;entryX=0.562;entryY=1.05;entryDx=0;entryDy=0;entryPerimeter=0;" edge="1" parent="1" source="sT2azdXUO7zj-hy4hxT2-2" target="sT2azdXUO7zj-hy4hxT2-2">
          <mxGeometry relative="1" as="geometry" />
        </mxCell>
        <mxCell id="sT2azdXUO7zj-hy4hxT2-7" value="Name" style="ellipse;whiteSpace=wrap;html=1;align=center;" vertex="1" parent="1">
          <mxGeometry x="170" y="92" width="100" height="40" as="geometry" />
        </mxCell>
        <mxCell id="sT2azdXUO7zj-hy4hxT2-8" value="" style="endArrow=none;html=1;rounded=0;entryX=0.3;entryY=0.975;entryDx=0;entryDy=0;entryPerimeter=0;" edge="1" parent="1" target="sT2azdXUO7zj-hy4hxT2-7">
          <mxGeometry relative="1" as="geometry">
            <mxPoint x="160" y="160" as="sourcePoint" />
            <mxPoint x="230" y="160" as="targetPoint" />
          </mxGeometry>
        </mxCell>
        <mxCell id="sT2azdXUO7zj-hy4hxT2-9" value="NIC" style="ellipse;whiteSpace=wrap;html=1;align=center;" vertex="1" parent="1">
          <mxGeometry x="-80" y="230" width="100" height="40" as="geometry" />
        </mxCell>
        <mxCell id="sT2azdXUO7zj-hy4hxT2-10" value="" style="endArrow=none;html=1;rounded=0;entryX=0;entryY=1;entryDx=0;entryDy=0;" edge="1" parent="1" target="sT2azdXUO7zj-hy4hxT2-1">
          <mxGeometry relative="1" as="geometry">
            <mxPoint x="10" y="240" as="sourcePoint" />
            <mxPoint x="90" y="240" as="targetPoint" />
          </mxGeometry>
        </mxCell>
        <mxCell id="sT2azdXUO7zj-hy4hxT2-11" value="" style="endArrow=none;html=1;rounded=0;" edge="1" parent="1" target="sT2azdXUO7zj-hy4hxT2-12">
          <mxGeometry relative="1" as="geometry">
            <mxPoint x="150" y="200" as="sourcePoint" />
            <mxPoint x="200" y="240" as="targetPoint" />
          </mxGeometry>
        </mxCell>
        <mxCell id="sT2azdXUO7zj-hy4hxT2-12" value="Contact_number" style="ellipse;whiteSpace=wrap;html=1;align=center;" vertex="1" parent="1">
          <mxGeometry x="160" y="230" width="100" height="40" as="geometry" />
        </mxCell>
        <mxCell id="sT2azdXUO7zj-hy4hxT2-13" value="m" style="endArrow=none;html=1;rounded=0;" edge="1" parent="1" target="sT2azdXUO7zj-hy4hxT2-14">
          <mxGeometry relative="1" as="geometry">
            <mxPoint x="160" y="179.5" as="sourcePoint" />
            <mxPoint x="320" y="179.5" as="targetPoint" />
            <Array as="points">
              <mxPoint x="210" y="180" />
            </Array>
          </mxGeometry>
        </mxCell>
        <mxCell id="sT2azdXUO7zj-hy4hxT2-14" value="Treat" style="shape=rhombus;perimeter=rhombusPerimeter;whiteSpace=wrap;html=1;align=center;" vertex="1" parent="1">
          <mxGeometry x="260" y="149.5" width="120" height="60" as="geometry" />
        </mxCell>
        <mxCell id="sT2azdXUO7zj-hy4hxT2-15" value="n" style="endArrow=none;html=1;rounded=0;" edge="1" parent="1" target="sT2azdXUO7zj-hy4hxT2-16">
          <mxGeometry relative="1" as="geometry">
            <mxPoint x="380" y="179.5" as="sourcePoint" />
            <mxPoint x="460" y="180" as="targetPoint" />
          </mxGeometry>
        </mxCell>
        <mxCell id="sT2azdXUO7zj-hy4hxT2-16" value="Patient" style="rounded=1;arcSize=10;whiteSpace=wrap;html=1;align=center;" vertex="1" parent="1">
          <mxGeometry x="460" y="160" width="120" height="40" as="geometry" />
        </mxCell>
        <mxCell id="sT2azdXUO7zj-hy4hxT2-25" value="PatientiD" style="ellipse;whiteSpace=wrap;html=1;align=center;fontStyle=4;" vertex="1" parent="1">
          <mxGeometry x="340" y="91" width="130" height="40" as="geometry" />
        </mxCell>
        <mxCell id="sT2azdXUO7zj-hy4hxT2-26" value="" style="endArrow=none;html=1;rounded=0;exitX=0.75;exitY=1.025;exitDx=0;exitDy=0;exitPerimeter=0;" edge="1" parent="1" source="sT2azdXUO7zj-hy4hxT2-25">
          <mxGeometry relative="1" as="geometry">
            <mxPoint x="431" y="139" as="sourcePoint" />
            <mxPoint x="461" y="159" as="targetPoint" />
          </mxGeometry>
        </mxCell>
        <mxCell id="sT2azdXUO7zj-hy4hxT2-27" value="Name" style="ellipse;whiteSpace=wrap;html=1;align=center;" vertex="1" parent="1">
          <mxGeometry x="591" y="91" width="100" height="40" as="geometry" />
        </mxCell>
        <mxCell id="sT2azdXUO7zj-hy4hxT2-28" value="" style="endArrow=none;html=1;rounded=0;entryX=0.3;entryY=0.975;entryDx=0;entryDy=0;entryPerimeter=0;" edge="1" parent="1" target="sT2azdXUO7zj-hy4hxT2-27">
          <mxGeometry relative="1" as="geometry">
            <mxPoint x="581" y="159" as="sourcePoint" />
            <mxPoint x="651" y="159" as="targetPoint" />
          </mxGeometry>
        </mxCell>
        <mxCell id="sT2azdXUO7zj-hy4hxT2-29" value="NIC" style="ellipse;whiteSpace=wrap;html=1;align=center;" vertex="1" parent="1">
          <mxGeometry x="380" y="240" width="100" height="40" as="geometry" />
        </mxCell>
        <mxCell id="sT2azdXUO7zj-hy4hxT2-30" value="" style="endArrow=none;html=1;rounded=0;entryX=0;entryY=1;entryDx=0;entryDy=0;" edge="1" parent="1">
          <mxGeometry relative="1" as="geometry">
            <mxPoint x="431" y="239" as="sourcePoint" />
            <mxPoint x="461" y="199" as="targetPoint" />
          </mxGeometry>
        </mxCell>
        <mxCell id="sT2azdXUO7zj-hy4hxT2-31" value="" style="endArrow=none;html=1;rounded=0;" edge="1" parent="1" target="sT2azdXUO7zj-hy4hxT2-32">
          <mxGeometry relative="1" as="geometry">
            <mxPoint x="571" y="199" as="sourcePoint" />
            <mxPoint x="621" y="239" as="targetPoint" />
          </mxGeometry>
        </mxCell>
        <mxCell id="sT2azdXUO7zj-hy4hxT2-32" value="Contact_number" style="ellipse;whiteSpace=wrap;html=1;align=center;" vertex="1" parent="1">
          <mxGeometry x="581" y="229" width="100" height="40" as="geometry" />
        </mxCell>
        <mxCell id="sT2azdXUO7zj-hy4hxT2-33" value="" style="endArrow=none;html=1;rounded=0;" edge="1" parent="1" target="sT2azdXUO7zj-hy4hxT2-34">
          <mxGeometry relative="1" as="geometry">
            <mxPoint x="581" y="179.5" as="sourcePoint" />
            <mxPoint x="661" y="179.5" as="targetPoint" />
          </mxGeometry>
        </mxCell>
        <mxCell id="sT2azdXUO7zj-hy4hxT2-34" value="City" style="ellipse;whiteSpace=wrap;html=1;align=center;" vertex="1" parent="1">
          <mxGeometry x="640" y="160" width="100" height="40" as="geometry" />
        </mxCell>
        <mxCell id="sT2azdXUO7zj-hy4hxT2-36" value="1" style="endArrow=none;html=1;rounded=0;" edge="1" parent="1" target="sT2azdXUO7zj-hy4hxT2-37">
          <mxGeometry relative="1" as="geometry">
            <mxPoint x="100" y="199" as="sourcePoint" />
            <mxPoint x="100" y="280" as="targetPoint" />
          </mxGeometry>
        </mxCell>
        <mxCell id="sT2azdXUO7zj-hy4hxT2-37" value="Recode" style="shape=rhombus;perimeter=rhombusPerimeter;whiteSpace=wrap;html=1;align=center;" vertex="1" parent="1">
          <mxGeometry x="40" y="280" width="120" height="60" as="geometry" />
        </mxCell>
        <mxCell id="sT2azdXUO7zj-hy4hxT2-38" value="m" style="endArrow=none;html=1;rounded=0;" edge="1" parent="1" target="sT2azdXUO7zj-hy4hxT2-39">
          <mxGeometry relative="1" as="geometry">
            <mxPoint x="100" y="340" as="sourcePoint" />
            <mxPoint x="100" y="420" as="targetPoint" />
          </mxGeometry>
        </mxCell>
        <mxCell id="sT2azdXUO7zj-hy4hxT2-39" value="Appoiment&amp;nbsp;" style="whiteSpace=wrap;html=1;align=center;" vertex="1" parent="1">
          <mxGeometry x="50" y="400" width="100" height="40" as="geometry" />
        </mxCell>
        <mxCell id="sT2azdXUO7zj-hy4hxT2-40" value="DoctorID" style="ellipse;whiteSpace=wrap;html=1;align=center;fontStyle=4;" vertex="1" parent="1">
          <mxGeometry x="-110" y="92" width="130" height="40" as="geometry" />
        </mxCell>
        <mxCell id="sT2azdXUO7zj-hy4hxT2-41" value="NIC" style="ellipse;whiteSpace=wrap;html=1;align=center;" vertex="1" parent="1">
          <mxGeometry x="-80" y="230" width="100" height="40" as="geometry" />
        </mxCell>
        <mxCell id="sT2azdXUO7zj-hy4hxT2-42" value="Contact_number" style="ellipse;whiteSpace=wrap;html=1;align=center;" vertex="1" parent="1">
          <mxGeometry x="160" y="230" width="100" height="40" as="geometry" />
        </mxCell>
        <mxCell id="sT2azdXUO7zj-hy4hxT2-43" value="Name" style="ellipse;whiteSpace=wrap;html=1;align=center;" vertex="1" parent="1">
          <mxGeometry x="170" y="92" width="100" height="40" as="geometry" />
        </mxCell>
        <mxCell id="sT2azdXUO7zj-hy4hxT2-44" value="" style="endArrow=none;html=1;rounded=0;entryX=0.3;entryY=0.975;entryDx=0;entryDy=0;entryPerimeter=0;" edge="1" target="sT2azdXUO7zj-hy4hxT2-43" parent="1">
          <mxGeometry relative="1" as="geometry">
            <mxPoint x="160" y="160" as="sourcePoint" />
            <mxPoint x="230" y="160" as="targetPoint" />
          </mxGeometry>
        </mxCell>
        <mxCell id="sT2azdXUO7zj-hy4hxT2-45" value="DoctorID" style="ellipse;whiteSpace=wrap;html=1;align=center;fontStyle=4;" vertex="1" parent="1">
          <mxGeometry x="-110" y="91" width="130" height="40" as="geometry" />
        </mxCell>
        <mxCell id="sT2azdXUO7zj-hy4hxT2-46" value="NIC" style="ellipse;whiteSpace=wrap;html=1;align=center;" vertex="1" parent="1">
          <mxGeometry x="-80" y="229" width="100" height="40" as="geometry" />
        </mxCell>
        <mxCell id="sT2azdXUO7zj-hy4hxT2-47" value="Contact_number" style="ellipse;whiteSpace=wrap;html=1;align=center;" vertex="1" parent="1">
          <mxGeometry x="160" y="229" width="100" height="40" as="geometry" />
        </mxCell>
        <mxCell id="sT2azdXUO7zj-hy4hxT2-48" value="Name" style="ellipse;whiteSpace=wrap;html=1;align=center;" vertex="1" parent="1">
          <mxGeometry x="170" y="91" width="100" height="40" as="geometry" />
        </mxCell>
        <mxCell id="sT2azdXUO7zj-hy4hxT2-49" value="" style="endArrow=none;html=1;rounded=0;entryX=0.3;entryY=0.975;entryDx=0;entryDy=0;entryPerimeter=0;" edge="1" target="sT2azdXUO7zj-hy4hxT2-48" parent="1">
          <mxGeometry relative="1" as="geometry">
            <mxPoint x="160" y="159" as="sourcePoint" />
            <mxPoint x="230" y="159" as="targetPoint" />
          </mxGeometry>
        </mxCell>
        <mxCell id="sT2azdXUO7zj-hy4hxT2-50" value="" style="endArrow=none;html=1;rounded=0;entryX=0;entryY=1;entryDx=0;entryDy=0;" edge="1" parent="1">
          <mxGeometry relative="1" as="geometry">
            <mxPoint x="10" y="239" as="sourcePoint" />
            <mxPoint x="40" y="199" as="targetPoint" />
          </mxGeometry>
        </mxCell>
        <mxCell id="sT2azdXUO7zj-hy4hxT2-51" value="DoctorID" style="ellipse;whiteSpace=wrap;html=1;align=center;fontStyle=4;" vertex="1" parent="1">
          <mxGeometry x="-110" y="91" width="130" height="40" as="geometry" />
        </mxCell>
        <mxCell id="sT2azdXUO7zj-hy4hxT2-52" value="NIC" style="ellipse;whiteSpace=wrap;html=1;align=center;" vertex="1" parent="1">
          <mxGeometry x="-80" y="229" width="100" height="40" as="geometry" />
        </mxCell>
        <mxCell id="sT2azdXUO7zj-hy4hxT2-53" value="Contact_number" style="ellipse;whiteSpace=wrap;html=1;align=center;" vertex="1" parent="1">
          <mxGeometry x="160" y="229" width="100" height="40" as="geometry" />
        </mxCell>
        <mxCell id="sT2azdXUO7zj-hy4hxT2-54" value="Name" style="ellipse;whiteSpace=wrap;html=1;align=center;" vertex="1" parent="1">
          <mxGeometry x="170" y="91" width="100" height="40" as="geometry" />
        </mxCell>
        <mxCell id="sT2azdXUO7zj-hy4hxT2-55" value="" style="endArrow=none;html=1;rounded=0;entryX=0.3;entryY=0.975;entryDx=0;entryDy=0;entryPerimeter=0;" edge="1" target="sT2azdXUO7zj-hy4hxT2-54" parent="1">
          <mxGeometry relative="1" as="geometry">
            <mxPoint x="160" y="159" as="sourcePoint" />
            <mxPoint x="230" y="159" as="targetPoint" />
          </mxGeometry>
        </mxCell>
        <mxCell id="sT2azdXUO7zj-hy4hxT2-56" value="" style="endArrow=none;html=1;rounded=0;entryX=0;entryY=1;entryDx=0;entryDy=0;" edge="1" parent="1">
          <mxGeometry relative="1" as="geometry">
            <mxPoint x="10" y="239" as="sourcePoint" />
            <mxPoint x="40" y="199" as="targetPoint" />
          </mxGeometry>
        </mxCell>
        <mxCell id="sT2azdXUO7zj-hy4hxT2-72" value="NIC" style="ellipse;whiteSpace=wrap;html=1;align=center;" vertex="1" parent="1">
          <mxGeometry x="-80" y="229" width="100" height="40" as="geometry" />
        </mxCell>
        <mxCell id="sT2azdXUO7zj-hy4hxT2-73" value="" style="endArrow=none;html=1;rounded=0;entryX=0;entryY=1;entryDx=0;entryDy=0;" edge="1" parent="1">
          <mxGeometry relative="1" as="geometry">
            <mxPoint x="10" y="239" as="sourcePoint" />
            <mxPoint x="40" y="199" as="targetPoint" />
          </mxGeometry>
        </mxCell>
        <mxCell id="sT2azdXUO7zj-hy4hxT2-74" value="" style="endArrow=none;html=1;rounded=0;exitX=0.75;exitY=1.025;exitDx=0;exitDy=0;exitPerimeter=0;" edge="1" parent="1">
          <mxGeometry relative="1" as="geometry">
            <mxPoint x="-12" y="133" as="sourcePoint" />
            <mxPoint x="40" y="160" as="targetPoint" />
          </mxGeometry>
        </mxCell>
        <mxCell id="sT2azdXUO7zj-hy4hxT2-75" value="DoctorID" style="ellipse;whiteSpace=wrap;html=1;align=center;fontStyle=4;" vertex="1" parent="1">
          <mxGeometry x="-110" y="91" width="130" height="40" as="geometry" />
        </mxCell>
        <mxCell id="sT2azdXUO7zj-hy4hxT2-76" value="" style="endArrow=none;html=1;rounded=0;entryX=0;entryY=0.5;entryDx=0;entryDy=0;" edge="1" parent="1" target="sT2azdXUO7zj-hy4hxT2-77">
          <mxGeometry relative="1" as="geometry">
            <mxPoint x="150" y="440" as="sourcePoint" />
            <mxPoint x="188" y="472" as="targetPoint" />
          </mxGeometry>
        </mxCell>
        <mxCell id="sT2azdXUO7zj-hy4hxT2-77" value="Contact_number" style="ellipse;whiteSpace=wrap;html=1;align=center;" vertex="1" parent="1">
          <mxGeometry x="190" y="430" width="100" height="40" as="geometry" />
        </mxCell>
        <mxCell id="sT2azdXUO7zj-hy4hxT2-78" value="Patient_Name" style="ellipse;whiteSpace=wrap;html=1;align=center;" vertex="1" parent="1">
          <mxGeometry x="160" y="332" width="100" height="40" as="geometry" />
        </mxCell>
        <mxCell id="sT2azdXUO7zj-hy4hxT2-79" value="" style="endArrow=none;html=1;rounded=0;entryX=0.3;entryY=0.975;entryDx=0;entryDy=0;entryPerimeter=0;" edge="1" parent="1" target="sT2azdXUO7zj-hy4hxT2-78">
          <mxGeometry relative="1" as="geometry">
            <mxPoint x="150" y="400" as="sourcePoint" />
            <mxPoint x="220" y="400" as="targetPoint" />
          </mxGeometry>
        </mxCell>
        <mxCell id="sT2azdXUO7zj-hy4hxT2-80" value="Doctor" style="ellipse;whiteSpace=wrap;html=1;align=center;" vertex="1" parent="1">
          <mxGeometry x="-80" y="430" width="100" height="40" as="geometry" />
        </mxCell>
        <mxCell id="sT2azdXUO7zj-hy4hxT2-81" value="" style="endArrow=none;html=1;rounded=0;entryX=0;entryY=1;entryDx=0;entryDy=0;exitX=1;exitY=0.5;exitDx=0;exitDy=0;" edge="1" parent="1" source="sT2azdXUO7zj-hy4hxT2-80">
          <mxGeometry relative="1" as="geometry">
            <mxPoint x="20" y="479" as="sourcePoint" />
            <mxPoint x="50" y="439" as="targetPoint" />
          </mxGeometry>
        </mxCell>
        <mxCell id="sT2azdXUO7zj-hy4hxT2-82" value="" style="endArrow=none;html=1;rounded=0;exitX=0.691;exitY=1.05;exitDx=0;exitDy=0;exitPerimeter=0;" edge="1" parent="1" source="sT2azdXUO7zj-hy4hxT2-83">
          <mxGeometry relative="1" as="geometry">
            <mxPoint x="40" y="373" as="sourcePoint" />
            <mxPoint x="50" y="400" as="targetPoint" />
          </mxGeometry>
        </mxCell>
        <mxCell id="sT2azdXUO7zj-hy4hxT2-83" value="Appoiment_NO" style="ellipse;whiteSpace=wrap;html=1;align=center;fontStyle=4;" vertex="1" parent="1">
          <mxGeometry x="-50" y="320" width="110" height="40" as="geometry" />
        </mxCell>
        <mxCell id="sT2azdXUO7zj-hy4hxT2-84" value="" style="endArrow=none;html=1;rounded=0;" edge="1" parent="1" target="sT2azdXUO7zj-hy4hxT2-87">
          <mxGeometry relative="1" as="geometry">
            <mxPoint x="50" y="440" as="sourcePoint" />
            <mxPoint x="30" y="480" as="targetPoint" />
          </mxGeometry>
        </mxCell>
        <mxCell id="sT2azdXUO7zj-hy4hxT2-85" value="" style="endArrow=none;html=1;rounded=0;exitX=1;exitY=1;exitDx=0;exitDy=0;" edge="1" parent="1" source="sT2azdXUO7zj-hy4hxT2-39" target="sT2azdXUO7zj-hy4hxT2-86">
          <mxGeometry relative="1" as="geometry">
            <mxPoint x="130" y="440" as="sourcePoint" />
            <mxPoint x="190" y="480" as="targetPoint" />
          </mxGeometry>
        </mxCell>
        <mxCell id="sT2azdXUO7zj-hy4hxT2-86" value="Location" style="ellipse;whiteSpace=wrap;html=1;align=center;" vertex="1" parent="1">
          <mxGeometry x="200" y="480" width="100" height="40" as="geometry" />
        </mxCell>
        <mxCell id="sT2azdXUO7zj-hy4hxT2-87" value="Patient_ID" style="ellipse;whiteSpace=wrap;html=1;align=center;" vertex="1" parent="1">
          <mxGeometry x="-80" y="480" width="100" height="40" as="geometry" />
        </mxCell>
        <mxCell id="sT2azdXUO7zj-hy4hxT2-89" value="" style="endArrow=none;html=1;rounded=0;exitX=0;exitY=0;exitDx=0;exitDy=0;" edge="1" parent="1" source="sT2azdXUO7zj-hy4hxT2-39" target="sT2azdXUO7zj-hy4hxT2-90">
          <mxGeometry relative="1" as="geometry">
            <mxPoint x="-80" y="350" as="sourcePoint" />
            <mxPoint x="50" y="399" as="targetPoint" />
          </mxGeometry>
        </mxCell>
        <mxCell id="sT2azdXUO7zj-hy4hxT2-90" value="Date/Time" style="ellipse;whiteSpace=wrap;html=1;align=center;" vertex="1" parent="1">
          <mxGeometry x="-160" y="320" width="100" height="40" as="geometry" />
        </mxCell>
        <mxCell id="sT2azdXUO7zj-hy4hxT2-91" value="1" style="endArrow=none;html=1;rounded=0;" edge="1" parent="1">
          <mxGeometry relative="1" as="geometry">
            <mxPoint x="150" y="419.5" as="sourcePoint" />
            <mxPoint x="310" y="419.5" as="targetPoint" />
          </mxGeometry>
        </mxCell>
        <mxCell id="sT2azdXUO7zj-hy4hxT2-92" value="Recode by" style="shape=rhombus;perimeter=rhombusPerimeter;whiteSpace=wrap;html=1;align=center;" vertex="1" parent="1">
          <mxGeometry x="310" y="390" width="120" height="60" as="geometry" />
        </mxCell>
        <mxCell id="sT2azdXUO7zj-hy4hxT2-93" value="1" style="endArrow=none;html=1;rounded=0;" edge="1" parent="1">
          <mxGeometry relative="1" as="geometry">
            <mxPoint x="431" y="419.5" as="sourcePoint" />
            <mxPoint x="591" y="419.5" as="targetPoint" />
          </mxGeometry>
        </mxCell>
        <mxCell id="sT2azdXUO7zj-hy4hxT2-94" value="Payment" style="whiteSpace=wrap;html=1;align=center;" vertex="1" parent="1">
          <mxGeometry x="591" y="400" width="100" height="40" as="geometry" />
        </mxCell>
        <mxCell id="sT2azdXUO7zj-hy4hxT2-95" value="" style="endArrow=none;html=1;rounded=0;" edge="1" parent="1" target="sT2azdXUO7zj-hy4hxT2-96">
          <mxGeometry relative="1" as="geometry">
            <mxPoint x="640" y="399" as="sourcePoint" />
            <mxPoint x="640" y="360" as="targetPoint" />
          </mxGeometry>
        </mxCell>
        <mxCell id="sT2azdXUO7zj-hy4hxT2-96" value="Cash_or_Credit Card" style="ellipse;whiteSpace=wrap;html=1;align=center;" vertex="1" parent="1">
          <mxGeometry x="591" y="310" width="100" height="40" as="geometry" />
        </mxCell>
        <mxCell id="sT2azdXUO7zj-hy4hxT2-97" value="1" style="endArrow=none;html=1;rounded=0;exitX=0;exitY=0.5;exitDx=0;exitDy=0;" edge="1" parent="1" source="sT2azdXUO7zj-hy4hxT2-1" target="sT2azdXUO7zj-hy4hxT2-98">
          <mxGeometry relative="1" as="geometry">
            <mxPoint x="-120" y="179.5" as="sourcePoint" />
            <mxPoint x="40" y="179.5" as="targetPoint" />
          </mxGeometry>
        </mxCell>
        <mxCell id="sT2azdXUO7zj-hy4hxT2-98" value="Recode&amp;nbsp;" style="shape=rhombus;perimeter=rhombusPerimeter;whiteSpace=wrap;html=1;align=center;" vertex="1" parent="1">
          <mxGeometry x="-230" y="149.5" width="120" height="60" as="geometry" />
        </mxCell>
        <mxCell id="sT2azdXUO7zj-hy4hxT2-99" value="m" style="endArrow=none;html=1;rounded=0;" edge="1" parent="1">
          <mxGeometry relative="1" as="geometry">
            <mxPoint x="-390" y="179.5" as="sourcePoint" />
            <mxPoint x="-230" y="179.5" as="targetPoint" />
          </mxGeometry>
        </mxCell>
        <mxCell id="sT2azdXUO7zj-hy4hxT2-100" value="Diagnosis" style="whiteSpace=wrap;html=1;align=center;" vertex="1" parent="1">
          <mxGeometry x="-490" y="160" width="100" height="40" as="geometry" />
        </mxCell>
        <mxCell id="sT2azdXUO7zj-hy4hxT2-101" value="" style="endArrow=none;html=1;rounded=0;exitX=1;exitY=1;exitDx=0;exitDy=0;" edge="1" parent="1" source="sT2azdXUO7zj-hy4hxT2-100" target="sT2azdXUO7zj-hy4hxT2-102">
          <mxGeometry relative="1" as="geometry">
            <mxPoint x="-550" y="270" as="sourcePoint" />
            <mxPoint x="-360" y="240" as="targetPoint" />
          </mxGeometry>
        </mxCell>
        <mxCell id="sT2azdXUO7zj-hy4hxT2-102" value="Diagnosis_ID" style="ellipse;whiteSpace=wrap;html=1;align=center;fontStyle=4;" vertex="1" parent="1">
          <mxGeometry x="-390" y="240" width="100" height="40" as="geometry" />
        </mxCell>
        <mxCell id="sT2azdXUO7zj-hy4hxT2-103" value="" style="endArrow=none;html=1;rounded=0;entryX=0.22;entryY=1.025;entryDx=0;entryDy=0;entryPerimeter=0;" edge="1" parent="1" target="sT2azdXUO7zj-hy4hxT2-105">
          <mxGeometry relative="1" as="geometry">
            <mxPoint x="-390" y="159" as="sourcePoint" />
            <mxPoint x="-374.7042924418761" y="139.11558017443872" as="targetPoint" />
          </mxGeometry>
        </mxCell>
        <mxCell id="sT2azdXUO7zj-hy4hxT2-105" value="Appoiment_ID" style="ellipse;whiteSpace=wrap;html=1;align=center;" vertex="1" parent="1">
          <mxGeometry x="-390" y="80" width="100" height="40" as="geometry" />
        </mxCell>
        <mxCell id="sT2azdXUO7zj-hy4hxT2-106" value="" style="endArrow=none;html=1;rounded=0;entryX=0.64;entryY=1.075;entryDx=0;entryDy=0;entryPerimeter=0;exitX=0;exitY=0;exitDx=0;exitDy=0;" edge="1" parent="1" target="sT2azdXUO7zj-hy4hxT2-107" source="sT2azdXUO7zj-hy4hxT2-100">
          <mxGeometry relative="1" as="geometry">
            <mxPoint x="-500" y="160" as="sourcePoint" />
            <mxPoint x="-520" y="130" as="targetPoint" />
          </mxGeometry>
        </mxCell>
        <mxCell id="sT2azdXUO7zj-hy4hxT2-107" value="Patient_details" style="ellipse;whiteSpace=wrap;html=1;align=center;" vertex="1" parent="1">
          <mxGeometry x="-590" y="80" width="100" height="40" as="geometry" />
        </mxCell>
        <mxCell id="sT2azdXUO7zj-hy4hxT2-112" value="1" style="endArrow=none;html=1;rounded=0;exitX=0;exitY=0.5;exitDx=0;exitDy=0;" edge="1" parent="1" target="sT2azdXUO7zj-hy4hxT2-113">
          <mxGeometry relative="1" as="geometry">
            <mxPoint x="-490" y="180.5" as="sourcePoint" />
            <mxPoint x="-490" y="180" as="targetPoint" />
          </mxGeometry>
        </mxCell>
        <mxCell id="sT2azdXUO7zj-hy4hxT2-113" value="Addmite by" style="shape=rhombus;perimeter=rhombusPerimeter;whiteSpace=wrap;html=1;align=center;" vertex="1" parent="1">
          <mxGeometry x="-760" y="150" width="120" height="60" as="geometry" />
        </mxCell>
        <mxCell id="sT2azdXUO7zj-hy4hxT2-114" value="m" style="endArrow=none;html=1;rounded=0;" edge="1" parent="1">
          <mxGeometry relative="1" as="geometry">
            <mxPoint x="-920" y="180" as="sourcePoint" />
            <mxPoint x="-760" y="180" as="targetPoint" />
          </mxGeometry>
        </mxCell>
        <mxCell id="sT2azdXUO7zj-hy4hxT2-115" value="Addmited patient" style="whiteSpace=wrap;html=1;align=center;" vertex="1" parent="1">
          <mxGeometry x="-1020" y="160" width="100" height="40" as="geometry" />
        </mxCell>
        <mxCell id="sT2azdXUO7zj-hy4hxT2-116" value="" style="endArrow=none;html=1;rounded=0;entryX=0.22;entryY=1.025;entryDx=0;entryDy=0;entryPerimeter=0;" edge="1" parent="1" target="sT2azdXUO7zj-hy4hxT2-117">
          <mxGeometry relative="1" as="geometry">
            <mxPoint x="-920" y="159" as="sourcePoint" />
            <mxPoint x="-904.7042924418761" y="139.11558017443872" as="targetPoint" />
          </mxGeometry>
        </mxCell>
        <mxCell id="sT2azdXUO7zj-hy4hxT2-117" value="Word" style="ellipse;whiteSpace=wrap;html=1;align=center;" vertex="1" parent="1">
          <mxGeometry x="-920" y="80" width="100" height="40" as="geometry" />
        </mxCell>
        <mxCell id="sT2azdXUO7zj-hy4hxT2-118" value="" style="endArrow=none;html=1;rounded=0;entryX=0.64;entryY=1.075;entryDx=0;entryDy=0;entryPerimeter=0;exitX=0;exitY=0;exitDx=0;exitDy=0;" edge="1" parent="1" target="sT2azdXUO7zj-hy4hxT2-119">
          <mxGeometry relative="1" as="geometry">
            <mxPoint x="-1020" y="160" as="sourcePoint" />
            <mxPoint x="-1050" y="130" as="targetPoint" />
          </mxGeometry>
        </mxCell>
        <mxCell id="sT2azdXUO7zj-hy4hxT2-119" value="Room_Number" style="ellipse;whiteSpace=wrap;html=1;align=center;" vertex="1" parent="1">
          <mxGeometry x="-1120" y="80" width="100" height="40" as="geometry" />
        </mxCell>
        <mxCell id="sT2azdXUO7zj-hy4hxT2-120" value="1" style="endArrow=none;html=1;rounded=0;" edge="1" parent="1">
          <mxGeometry relative="1" as="geometry">
            <mxPoint x="-970.5" y="200" as="sourcePoint" />
            <mxPoint x="-970" y="280" as="targetPoint" />
          </mxGeometry>
        </mxCell>
        <mxCell id="sT2azdXUO7zj-hy4hxT2-121" value="Assigent By" style="shape=rhombus;perimeter=rhombusPerimeter;whiteSpace=wrap;html=1;align=center;" vertex="1" parent="1">
          <mxGeometry x="-1030" y="280" width="120" height="60" as="geometry" />
        </mxCell>
        <mxCell id="sT2azdXUO7zj-hy4hxT2-122" value="Nures" style="whiteSpace=wrap;html=1;align=center;" vertex="1" parent="1">
          <mxGeometry x="-1020" y="400" width="100" height="40" as="geometry" />
        </mxCell>
        <mxCell id="sT2azdXUO7zj-hy4hxT2-123" value="m" style="endArrow=none;html=1;rounded=0;entryX=0.5;entryY=0;entryDx=0;entryDy=0;" edge="1" parent="1" target="sT2azdXUO7zj-hy4hxT2-122">
          <mxGeometry relative="1" as="geometry">
            <mxPoint x="-970" y="340" as="sourcePoint" />
            <mxPoint x="-810" y="340" as="targetPoint" />
          </mxGeometry>
        </mxCell>
        <mxCell id="sT2azdXUO7zj-hy4hxT2-131" value="1" style="endArrow=none;html=1;rounded=0;exitX=0;exitY=0.5;exitDx=0;exitDy=0;" edge="1" parent="1" target="sT2azdXUO7zj-hy4hxT2-132">
          <mxGeometry relative="1" as="geometry">
            <mxPoint x="-490" y="420.5" as="sourcePoint" />
            <mxPoint x="-490" y="420" as="targetPoint" />
          </mxGeometry>
        </mxCell>
        <mxCell id="sT2azdXUO7zj-hy4hxT2-132" value="Workby" style="shape=rhombus;perimeter=rhombusPerimeter;whiteSpace=wrap;html=1;align=center;" vertex="1" parent="1">
          <mxGeometry x="-760" y="390" width="120" height="60" as="geometry" />
        </mxCell>
        <mxCell id="sT2azdXUO7zj-hy4hxT2-133" value="m" style="endArrow=none;html=1;rounded=0;" edge="1" parent="1">
          <mxGeometry relative="1" as="geometry">
            <mxPoint x="-920" y="420" as="sourcePoint" />
            <mxPoint x="-760" y="420" as="targetPoint" />
          </mxGeometry>
        </mxCell>
        <mxCell id="sT2azdXUO7zj-hy4hxT2-135" value="Ward" style="whiteSpace=wrap;html=1;align=center;" vertex="1" parent="1">
          <mxGeometry x="-490" y="400" width="100" height="40" as="geometry" />
        </mxCell>
        <mxCell id="sT2azdXUO7zj-hy4hxT2-137" value="" style="endArrow=none;html=1;rounded=0;" edge="1" parent="1">
          <mxGeometry relative="1" as="geometry">
            <mxPoint x="-560" y="360" as="sourcePoint" />
            <mxPoint x="-490" y="400" as="targetPoint" />
          </mxGeometry>
        </mxCell>
        <mxCell id="sT2azdXUO7zj-hy4hxT2-138" value="" style="endArrow=none;html=1;rounded=0;" edge="1" parent="1">
          <mxGeometry relative="1" as="geometry">
            <mxPoint x="-442" y="340" as="sourcePoint" />
            <mxPoint x="-442" y="399" as="targetPoint" />
          </mxGeometry>
        </mxCell>
        <mxCell id="sT2azdXUO7zj-hy4hxT2-140" value="" style="endArrow=none;html=1;rounded=0;" edge="1" parent="1" target="sT2azdXUO7zj-hy4hxT2-141">
          <mxGeometry relative="1" as="geometry">
            <mxPoint x="-390" y="400" as="sourcePoint" />
            <mxPoint x="-360" y="360" as="targetPoint" />
          </mxGeometry>
        </mxCell>
        <mxCell id="sT2azdXUO7zj-hy4hxT2-141" value="Floor" style="ellipse;whiteSpace=wrap;html=1;align=center;" vertex="1" parent="1">
          <mxGeometry x="-410" y="340" width="100" height="40" as="geometry" />
        </mxCell>
        <mxCell id="sT2azdXUO7zj-hy4hxT2-142" value="Name" style="ellipse;whiteSpace=wrap;html=1;align=center;" vertex="1" parent="1">
          <mxGeometry x="-490" y="300" width="100" height="40" as="geometry" />
        </mxCell>
        <mxCell id="sT2azdXUO7zj-hy4hxT2-144" value="Ward_No" style="ellipse;whiteSpace=wrap;html=1;align=center;fontStyle=4;" vertex="1" parent="1">
          <mxGeometry x="-620" y="320" width="100" height="40" as="geometry" />
        </mxCell>
        <mxCell id="sT2azdXUO7zj-hy4hxT2-145" value="1" style="endArrow=none;html=1;rounded=0;" edge="1" parent="1">
          <mxGeometry relative="1" as="geometry">
            <mxPoint x="-440" y="440" as="sourcePoint" />
            <mxPoint x="-440" y="510" as="targetPoint" />
          </mxGeometry>
        </mxCell>
        <mxCell id="sT2azdXUO7zj-hy4hxT2-149" value="" style="edgeStyle=orthogonalEdgeStyle;rounded=0;orthogonalLoop=1;jettySize=auto;html=1;" edge="1" parent="1" source="sT2azdXUO7zj-hy4hxT2-146" target="sT2azdXUO7zj-hy4hxT2-148">
          <mxGeometry relative="1" as="geometry" />
        </mxCell>
        <mxCell id="sT2azdXUO7zj-hy4hxT2-146" value="Manageby" style="shape=rhombus;perimeter=rhombusPerimeter;whiteSpace=wrap;html=1;align=center;" vertex="1" parent="1">
          <mxGeometry x="-500" y="510" width="120" height="60" as="geometry" />
        </mxCell>
        <mxCell id="sT2azdXUO7zj-hy4hxT2-147" value="1" style="endArrow=none;html=1;rounded=0;" edge="1" parent="1">
          <mxGeometry relative="1" as="geometry">
            <mxPoint x="-440" y="570" as="sourcePoint" />
            <mxPoint x="-440" y="640" as="targetPoint" />
          </mxGeometry>
        </mxCell>
        <mxCell id="sT2azdXUO7zj-hy4hxT2-148" value="HeadNures" style="whiteSpace=wrap;html=1;align=center;" vertex="1" parent="1">
          <mxGeometry x="-490" y="640" width="100" height="40" as="geometry" />
        </mxCell>
        <mxCell id="sT2azdXUO7zj-hy4hxT2-151" value="" style="line;strokeWidth=1;rotatable=0;dashed=0;labelPosition=right;align=left;verticalAlign=middle;spacingTop=0;spacingLeft=6;points=[];portConstraint=eastwest;" vertex="1" parent="1">
          <mxGeometry x="-1080" y="420" width="60" height="10" as="geometry" />
        </mxCell>
        <mxCell id="sT2azdXUO7zj-hy4hxT2-152" value="Name" style="ellipse;whiteSpace=wrap;html=1;align=center;" vertex="1" parent="1">
          <mxGeometry x="-1180" y="405" width="100" height="40" as="geometry" />
        </mxCell>
        <mxCell id="sT2azdXUO7zj-hy4hxT2-155" value="Contact_Number" style="ellipse;whiteSpace=wrap;html=1;align=center;" vertex="1" parent="1">
          <mxGeometry x="-1140" y="470" width="100" height="40" as="geometry" />
        </mxCell>
        <mxCell id="sT2azdXUO7zj-hy4hxT2-156" value="" style="endArrow=none;html=1;rounded=0;entryX=0;entryY=1;entryDx=0;entryDy=0;" edge="1" parent="1" target="sT2azdXUO7zj-hy4hxT2-122">
          <mxGeometry relative="1" as="geometry">
            <mxPoint x="-1040" y="489.5" as="sourcePoint" />
            <mxPoint x="-880" y="489.5" as="targetPoint" />
          </mxGeometry>
        </mxCell>
        <mxCell id="sT2azdXUO7zj-hy4hxT2-157" value="" style="endArrow=none;html=1;rounded=0;entryX=0;entryY=0;entryDx=0;entryDy=0;" edge="1" parent="1" target="sT2azdXUO7zj-hy4hxT2-122">
          <mxGeometry relative="1" as="geometry">
            <mxPoint x="-1080" y="360" as="sourcePoint" />
            <mxPoint x="-1020" y="389" as="targetPoint" />
          </mxGeometry>
        </mxCell>
        <mxCell id="sT2azdXUO7zj-hy4hxT2-158" value="NIC" style="ellipse;whiteSpace=wrap;html=1;align=center;fontStyle=4;" vertex="1" parent="1">
          <mxGeometry x="-1150" y="320" width="100" height="40" as="geometry" />
        </mxCell>
        <mxCell id="sT2azdXUO7zj-hy4hxT2-159" value="Assumption&lt;br&gt;&lt;ol&gt;&lt;li&gt;Diagnisis addmit by addmited patient&lt;/li&gt;&lt;li&gt;Addmited patient assigent many nures&lt;/li&gt;&lt;li&gt;Word work many nures&lt;/li&gt;&lt;li&gt;ward has one head nures and head nures manage by One ward.&lt;/li&gt;&lt;li&gt;nures has name,contact number,nic&lt;/li&gt;&lt;li&gt;&lt;br&gt;&lt;/li&gt;&lt;/ol&gt;" style="rounded=0;whiteSpace=wrap;html=1;align=left;" vertex="1" parent="1">
          <mxGeometry x="-810" y="700" width="670" height="200" as="geometry" />
        </mxCell>
      </root>
    </mxGraphModel>
  </diagram>
</mxfile>
